<svg width="155" height="43" viewBox="0 0 155 43" fill="none" xmlns="http://www.w3.org/2000/svg">
<path d="M57.4548 18.8666C57.8468 19.4684 58.0493 20.1813 58.0342 20.9072C58.0566 21.458 57.957 22.0069 57.743 22.5116C57.5289 23.0163 57.2062 23.4635 56.7995 23.8188C55.9784 24.542 54.8488 24.9036 53.4109 24.9036H46.5547V10.7827H53.0468C54.3817 10.7827 55.4606 11.1317 56.2838 11.8298C56.6812 12.1534 57.001 12.5678 57.2184 13.0407C57.4357 13.5136 57.5447 14.0321 57.5367 14.5558C57.5628 15.1637 57.4166 15.7663 57.1164 16.2892C56.8162 16.8121 56.3749 17.2326 55.8469 17.4989C56.4967 17.7883 57.0542 18.2625 57.4548 18.8666ZM49.1637 13.1724V16.6562H53.0863C53.3304 16.6668 53.5742 16.627 53.8034 16.539C54.0326 16.451 54.2425 16.3166 54.4211 16.1437C54.5819 15.9801 54.7091 15.7845 54.795 15.5687C54.881 15.3529 54.924 15.1213 54.9215 14.8878C54.9189 14.6543 54.8709 14.4238 54.7802 14.21C54.6895 13.9963 54.5581 13.8038 54.3938 13.644C54.0171 13.3074 53.5278 13.138 53.0317 13.1724H49.1637ZM54.8549 21.9763C55.0329 21.809 55.1738 21.6038 55.2681 21.3748C55.3623 21.1458 55.4077 20.8983 55.401 20.6494C55.4073 20.4051 55.3626 20.1623 55.2699 19.9376C55.1772 19.713 55.0388 19.5117 54.864 19.3477C54.463 18.991 53.9446 18.8085 53.4169 18.8383H49.1697V22.5014H53.4169C53.943 22.5243 54.4576 22.3375 54.8549 21.9794V21.9763Z" fill="#ED6D09"/>
<path d="M62.6118 13.2981V16.5178H69.0433V18.9389H62.6118V22.4165H70.0171V24.9162H60.0059V10.7827H70.0414V13.2981H62.6118Z" fill="#ED6D09"/>
<path d="M74.7857 13.2981V16.5178H81.2111V18.9389H74.7857V22.4165H82.1909V24.9162H72.1797V10.7827H82.2091V13.2981H74.7857Z" fill="#ED6D09"/>
<path d="M85.4912 23.9477C84.4492 23.2001 83.6539 22.1387 83.2129 20.9072L85.7673 20.1086C86.0469 20.8841 86.5527 21.5501 87.2144 22.014C87.9305 22.5131 88.7786 22.7691 89.6413 22.7466C90.3027 22.7766 90.9567 22.5931 91.5131 22.2215C91.7256 22.0917 91.9029 21.9084 92.0286 21.6885C92.1543 21.4686 92.2243 21.2193 92.2321 20.9638C92.234 20.7818 92.1987 20.6015 92.1287 20.4346C92.0586 20.2677 91.9553 20.118 91.8256 19.9954C91.4215 19.6498 90.9477 19.4026 90.4392 19.2722L86.9625 18.1403C86.1091 17.89 85.332 17.4169 84.7055 16.7662C84.4315 16.4726 84.2178 16.1246 84.077 15.7431C83.9362 15.3616 83.8714 14.9545 83.8864 14.5464C83.8835 13.9907 84.0073 13.4422 84.2477 12.9456C84.4881 12.4489 84.8383 12.0181 85.2697 11.6883C86.264 10.8772 87.5031 10.4573 88.7676 10.5029C90.0692 10.4716 91.3516 10.832 92.4596 11.5405C93.4326 12.1362 94.1928 13.0432 94.6257 14.1251L92.1472 14.8734C91.8478 14.2861 91.3876 13.8037 90.8245 13.4868C90.2036 13.1281 89.5026 12.9449 88.7919 12.9554C88.2335 12.9307 87.6814 13.0855 87.2113 13.3987C87.0305 13.5115 86.88 13.6697 86.774 13.8588C86.6679 14.0479 86.6096 14.2617 86.6046 14.4804C86.6046 15.0966 87.0384 15.54 87.906 15.8104L91.2856 16.9423C92.2816 17.2097 93.212 17.6918 94.0159 18.3572C94.6368 18.9295 94.9483 19.747 94.9503 20.8098C94.9513 21.4157 94.8145 22.0133 94.5509 22.5541C94.2874 23.0949 93.9045 23.5638 93.4335 23.9226C92.4222 24.761 91.1137 25.1803 89.5078 25.1803C88.0757 25.2291 86.6668 24.7967 85.4912 23.9477Z" fill="black"/>
<path d="M106.904 13.2981H102.335V24.9036H99.6654V13.2981H95.0996V10.7827H106.904V13.2981Z" fill="black"/>
<path d="M113.991 19.9641H111.097V24.9037H108.445V10.7828H115.074C115.702 10.7556 116.328 10.8665 116.912 11.1082C117.495 11.3499 118.023 11.7169 118.46 12.1852C118.987 12.7287 119.372 13.4031 119.577 14.1441C119.782 14.8852 119.801 15.6683 119.632 16.4191C119.463 17.1699 119.112 17.8635 118.611 18.4339C118.111 19.0042 117.478 19.4325 116.773 19.678L120.152 24.8943H117.076L113.991 19.9641ZM111.097 17.543H114.904C115.203 17.5546 115.501 17.505 115.781 17.397C116.061 17.2891 116.317 17.125 116.536 16.9142C116.738 16.7175 116.899 16.479 117.006 16.2141C117.114 15.9493 117.167 15.664 117.161 15.3766C117.165 15.0983 117.113 14.8222 117.008 14.5657C116.904 14.3092 116.749 14.0779 116.554 13.8862C116.35 13.6786 116.108 13.5159 115.841 13.4078C115.575 13.2997 115.29 13.2486 115.004 13.2574H111.097V17.543Z" fill="black"/>
<path d="M121.955 10.7827H124.661V24.9036H121.955V10.7827Z" fill="black"/>
<path d="M138.881 10.7827V24.9036H136.688L129.843 15.7318V24.9036H127.174V10.7827H129.376L136.214 19.9325V10.7827H138.881Z" fill="black"/>
<path d="M154.983 18.4766C154.983 20.4638 154.347 22.0789 153.075 23.3219C151.803 24.5649 150.144 25.1864 148.1 25.1864C147.142 25.2171 146.188 25.0466 145.295 24.6851C144.403 24.3236 143.59 23.7786 142.906 23.0829C142.232 22.4007 141.701 21.5817 141.347 20.6771C140.992 19.7725 140.822 18.8018 140.846 17.8257C140.824 16.8588 140.995 15.8975 141.348 15.0021C141.7 14.1067 142.228 13.2964 142.897 12.622C143.561 11.932 144.354 11.3894 145.227 11.0273C146.1 10.6651 147.035 10.4909 147.975 10.5153C149.44 10.4714 150.882 10.8939 152.107 11.7259C153.201 12.4684 154.041 13.5501 154.507 14.8167L152.037 15.543C151.271 13.9164 149.923 13.103 147.993 13.103C147.397 13.0835 146.803 13.1953 146.252 13.4311C145.7 13.6669 145.203 14.0212 144.793 14.4708C144.383 14.9127 144.062 15.4339 143.847 16.0048C143.632 16.5756 143.527 17.1848 143.54 17.7974C143.526 18.4275 143.632 19.0542 143.853 19.6414C144.073 20.2286 144.404 20.7646 144.826 21.2184C145.68 22.147 146.837 22.6102 148.297 22.6081C149.272 22.6521 150.229 22.3331 150.997 21.7089C151.675 21.1476 152.116 20.3344 152.225 19.4419H148.039V17.0711H154.989L154.983 18.4766Z" fill="black"/>
<path d="M57.7341 35.7211C57.4656 35.4456 57.2544 35.1159 57.1135 34.7525C56.9727 34.3891 56.9051 33.9997 56.915 33.6082C56.905 33.219 56.9726 32.8319 57.1136 32.471C57.2545 32.1102 57.4658 31.7833 57.7341 31.5109C58.2902 30.9679 59.0254 30.6655 59.7895 30.6655C60.5535 30.6655 61.2887 30.9679 61.8448 31.5109C62.1126 31.7836 62.3233 32.1106 62.4637 32.4714C62.6042 32.8322 62.6713 33.2192 62.6609 33.6082C62.6511 34.1952 62.4761 34.7665 62.1572 35.2517C61.8384 35.737 61.3897 36.1152 60.8662 36.3396C60.3428 36.5641 59.7675 36.6252 59.211 36.5153C58.6546 36.4054 58.1412 36.1294 57.7341 35.7211ZM61.0712 34.9854C61.4047 34.6116 61.5834 34.1171 61.5687 33.6082C61.5823 33.1042 61.4035 32.6149 61.0712 32.2467C60.7266 31.894 60.2617 31.6962 59.7773 31.6962C59.293 31.6962 58.8281 31.894 58.4835 32.2467C58.1511 32.6149 57.9724 33.1042 57.9859 33.6082C57.9713 34.1171 58.1499 34.6116 58.4835 34.9854C58.6527 35.1627 58.8542 35.3034 59.0763 35.3995C59.2984 35.4955 59.5367 35.545 59.7773 35.545C60.018 35.545 60.2563 35.4955 60.4783 35.3995C60.7004 35.3034 60.9019 35.1627 61.0712 34.9854Z" fill="#666666"/>
<path d="M70.1927 30.7778V36.4375H69.3099L66.5583 32.7493V36.4375H65.4844V30.7778H66.3702L69.1188 34.4566V30.7778H70.1927Z" fill="#666666"/>
<path d="M77.0473 35.4312V36.4531H73.2461V30.7935H74.32V35.447L77.0473 35.4312Z" fill="#666666"/>
<path d="M79.7695 30.7778H80.8556V36.4375H79.7695V30.7778Z" fill="#666666"/>
<path d="M88.6152 30.7778V36.4375H87.7324L84.9808 32.7493V36.4375H83.916V30.7778H84.8019L87.5565 34.4566V30.7778H88.6152Z" fill="#666666"/>
<path d="M92.7126 31.781V33.0796H95.3004V34.0511H92.7126V35.444H95.6917V36.4502H91.666V30.7905H95.7039V31.7935L92.7126 31.781Z" fill="#666666"/>
<path d="M103.182 36.0698C102.765 35.7679 102.447 35.3411 102.271 34.8467L103.297 34.5323C103.41 34.8435 103.613 35.1105 103.879 35.2963C104.168 35.4987 104.511 35.6021 104.859 35.5919C105.125 35.6048 105.388 35.5312 105.612 35.3812C105.699 35.3316 105.773 35.2596 105.826 35.1721C105.879 35.0846 105.91 34.9845 105.915 34.8813C105.916 34.808 105.902 34.7353 105.873 34.6681C105.845 34.6009 105.803 34.5407 105.751 34.4914C105.588 34.3525 105.398 34.2526 105.193 34.199L103.776 33.7368C103.433 33.6368 103.119 33.4474 102.866 33.1865C102.648 32.9451 102.53 32.6243 102.538 32.2936C102.538 32.0701 102.587 31.8495 102.684 31.6496C102.78 31.4498 102.921 31.2761 103.094 31.1428C103.494 30.8165 103.992 30.6472 104.501 30.6648C105.025 30.6535 105.541 30.7986 105.988 31.083C106.378 31.3244 106.683 31.6892 106.858 32.1238L105.86 32.4225C105.744 32.1792 105.557 31.9793 105.326 31.8502C105.078 31.7044 104.796 31.6305 104.51 31.6364C104.286 31.625 104.063 31.6866 103.873 31.8125C103.8 31.8578 103.739 31.9216 103.696 31.9981C103.653 32.0745 103.629 32.1611 103.628 32.2495C103.628 32.4979 103.8 32.674 104.149 32.7841L105.511 33.24C105.911 33.3467 106.283 33.5408 106.604 33.8091C106.733 33.9364 106.832 34.0919 106.896 34.2644C106.959 34.4368 106.985 34.6218 106.971 34.8058C106.971 35.0499 106.916 35.2906 106.811 35.5089C106.705 35.7272 106.552 35.9171 106.364 36.0635C105.909 36.4165 105.351 36.5954 104.783 36.5697C104.212 36.5855 103.65 36.4102 103.182 36.0698Z" fill="#666666"/>
<path d="M114.435 30.7778V34.1265C114.449 34.4505 114.401 34.7743 114.294 35.0788C114.186 35.3833 114.02 35.6624 113.807 35.8998C113.32 36.329 112.701 36.5646 112.061 36.5646C111.422 36.5646 110.803 36.329 110.315 35.8998C110.106 35.6597 109.945 35.3792 109.841 35.0743C109.737 34.7694 109.692 34.4463 109.708 34.1233V30.7778H110.798V34.1107C110.78 34.4886 110.899 34.8596 111.131 35.1515C111.251 35.2864 111.398 35.392 111.561 35.4605C111.725 35.5291 111.902 35.5588 112.078 35.5477C112.256 35.5587 112.434 35.529 112.6 35.4605C112.766 35.392 112.915 35.2865 113.036 35.1515C113.259 34.8556 113.368 34.4849 113.343 34.1107V30.7778H114.435Z" fill="#666666"/>
<path d="M119.667 34.4662H118.5V36.4534H117.432V30.7937H120.098C120.351 30.7824 120.603 30.8266 120.838 30.9237C121.072 31.0207 121.285 31.1682 121.46 31.3566C121.671 31.5751 121.825 31.8457 121.907 32.1428C121.989 32.4399 121.996 32.7537 121.929 33.0547C121.862 33.3557 121.721 33.634 121.522 33.8633C121.322 34.0926 121.069 34.2655 120.787 34.3656L122.146 36.4628H120.908L119.667 34.4662ZM118.5 33.4915H120.016C120.136 33.4972 120.257 33.4782 120.369 33.4356C120.482 33.393 120.586 33.3275 120.675 33.2431C120.758 33.1631 120.823 33.0655 120.866 32.957C120.91 32.8485 120.93 32.7317 120.926 32.6143C120.928 32.502 120.906 32.3907 120.864 32.2874C120.822 32.184 120.759 32.0909 120.681 32.0137C120.598 31.9305 120.5 31.8653 120.393 31.8221C120.286 31.7789 120.171 31.7585 120.056 31.7622H118.5V33.4915Z" fill="#666666"/>
<path d="M129.788 30.7778L127.631 36.4375H126.454L124.297 30.7778H125.477L127.042 35.0446L128.608 30.7778H129.788Z" fill="#666666"/>
<path d="M133.419 31.781V33.0796H136.007V34.0511H133.419V35.444H136.398V36.4502H132.369V30.7905H136.398V31.7935L133.419 31.781Z" fill="#666666"/>
<path d="M144.063 30.7778L141.994 34.3654V36.4469H140.905V34.3654L138.824 30.7778H140.038L141.451 33.2932L142.862 30.7778H144.063Z" fill="#666666"/>
<path d="M7.44281 28.3464C10.9568 28.3464 13.8055 25.3939 13.8055 21.7518C13.8055 18.1097 10.9568 15.1572 7.44281 15.1572C3.92877 15.1572 1.08008 18.1097 1.08008 21.7518C1.08008 25.3939 3.92877 28.3464 7.44281 28.3464Z" fill="#F5C722"/>
<path d="M7.56084 29.4255C6.57539 29.4467 5.59578 29.2638 4.67939 28.8876C3.763 28.5113 2.92828 27.9494 2.22412 27.2345C1.51996 26.5197 0.960542 25.6664 0.57863 24.7246C0.196719 23.7828 0 22.7715 0 21.7499C0 20.7284 0.196719 19.7171 0.57863 18.7753C0.960542 17.8335 1.51996 16.9802 2.22412 16.2654C2.92828 15.5505 3.763 14.9885 4.67939 14.6123C5.59578 14.2361 6.57539 14.0532 7.56084 14.0744C7.84463 14.0744 8.11679 14.1912 8.31745 14.3992C8.51812 14.6072 8.63085 14.8893 8.63085 15.1834C8.63085 15.4775 8.51812 15.7596 8.31745 15.9676C8.11679 16.1756 7.84463 16.2924 7.56084 16.2924C6.85845 16.2745 6.1597 16.4024 5.50573 16.6686C4.85176 16.9349 4.25579 17.334 3.7529 17.8425C3.25002 18.3511 2.85038 18.9588 2.57752 19.6298C2.30466 20.3009 2.16409 21.0217 2.16409 21.7499C2.16409 22.4781 2.30466 23.199 2.57752 23.87C2.85038 24.5411 3.25002 25.1488 3.7529 25.6573C4.25579 26.1659 4.85176 26.565 5.50573 26.8312C6.1597 27.0975 6.85845 27.2254 7.56084 27.2075C7.70136 27.2075 7.8405 27.2362 7.97032 27.2919C8.10014 27.3476 8.21809 27.4293 8.31745 27.5323C8.41681 27.6353 8.49563 27.7575 8.5494 27.8921C8.60317 28.0266 8.63085 28.1708 8.63085 28.3165C8.63085 28.4621 8.60317 28.6063 8.5494 28.7409C8.49563 28.8754 8.41681 28.9977 8.31745 29.1007C8.21809 29.2036 8.10014 29.2853 7.97032 29.3411C7.8405 29.3968 7.70136 29.4255 7.56084 29.4255Z" fill="#23212C"/>
<path d="M27.807 34.0496C34.3603 34.0496 39.6727 28.5436 39.6727 21.7516C39.6727 14.9596 34.3603 9.45361 27.807 9.45361C21.2538 9.45361 15.9414 14.9596 15.9414 21.7516C15.9414 28.5436 21.2538 34.0496 27.807 34.0496Z" fill="#F5C722"/>
<path d="M16.5388 1.85889H24.5001C24.9675 1.85845 25.4304 1.9535 25.8624 2.13858C26.2943 2.32366 26.6868 2.59516 27.0175 2.93755C27.3481 3.27994 27.6104 3.68651 27.7894 4.13403C27.9684 4.58154 28.0605 5.06122 28.0605 5.54565C28.0605 7.67385 27.656 9.7812 26.8702 11.7474C26.0845 13.7136 24.9327 15.5001 23.4808 17.005C22.0288 18.5098 20.3051 19.7036 18.408 20.518C16.511 21.3324 14.4777 21.7516 12.4243 21.7516H8.86719V9.81003C8.86719 7.70125 9.67544 5.67885 11.1141 4.18772C12.5528 2.69659 14.5041 1.85889 16.5388 1.85889Z" fill="#ED6D09"/>
<path d="M12.424 22.864H8.86688C8.58281 22.8631 8.31065 22.7455 8.11008 22.537C7.90951 22.3285 7.79687 22.0461 7.79688 21.7517V9.81013C7.7994 7.40804 8.7212 5.10508 10.36 3.40655C11.9988 1.70801 14.2208 0.752621 16.5385 0.75L24.4998 0.75C25.7276 0.749999 26.9052 1.25505 27.774 2.15425C28.6428 3.05344 29.1317 4.27324 29.1334 5.54577C29.13 10.1378 27.3685 14.5407 24.2356 17.7877C21.1027 21.0348 16.8546 22.8605 12.424 22.864ZM9.93689 20.646H12.424C16.2865 20.6416 19.9895 19.0492 22.7203 16.2182C25.4512 13.3872 26.9868 9.54895 26.9902 5.54577C26.9885 4.86264 26.7259 4.20798 26.2598 3.72494C25.7938 3.24189 25.1621 2.96974 24.503 2.968H16.5417C14.7908 2.96887 13.1118 3.68991 11.8734 4.97278C10.6351 6.25564 9.93858 7.99545 9.93689 9.81013V20.646Z" fill="#23212C"/>
<path d="M8.86719 21.7515H12.4243C16.5713 21.7515 20.5484 23.4589 23.4808 26.4981C26.4131 29.5373 28.0605 33.6593 28.0605 37.9574C28.0605 38.9352 27.6857 39.8729 27.0186 40.5643C26.3515 41.2557 25.4467 41.6442 24.5033 41.6442H16.1184C14.1953 41.6442 12.3509 40.8524 10.991 39.4429C9.63115 38.0335 8.86719 36.1219 8.86719 34.1287V21.7515Z" fill="#ED6D09"/>
<path d="M24.503 42.75H16.1181C13.9125 42.7473 11.7979 41.8383 10.238 40.2222C8.67813 38.6061 7.80025 36.4148 7.79688 34.1288V21.7516C7.79687 21.4575 7.90961 21.1754 8.11027 20.9674C8.31094 20.7594 8.5831 20.6426 8.86688 20.6426H12.424C16.8535 20.6461 21.1006 22.4709 24.2333 25.7165C27.366 28.9621 29.1283 33.3633 29.1334 37.9542C29.1317 39.2262 28.6432 40.4455 27.7751 41.3446C26.907 42.2437 25.7303 42.7491 24.503 42.75ZM9.93689 22.8639V34.1321C9.93942 35.8301 10.5916 37.4577 11.7503 38.6581C12.9091 39.8584 14.4798 40.5335 16.1181 40.5353H24.503C25.1624 40.5344 25.7945 40.2625 26.2608 39.7793C26.727 39.2961 26.9893 38.6409 26.9902 37.9575C26.9859 33.9552 25.4498 30.1181 22.719 27.2884C19.9881 24.4586 16.2856 22.8674 12.424 22.8639H9.93689Z" fill="#23212C"/>
<path d="M27.5915 35.1054C27.3077 35.1054 27.0355 34.9886 26.8349 34.7806C26.6342 34.5726 26.5215 34.2905 26.5215 33.9964C26.5215 33.7023 26.6342 33.4202 26.8349 33.2122C27.0355 33.0042 27.3077 32.8874 27.5915 32.8874C30.4412 32.8874 33.1741 31.7141 35.1891 29.6257C37.2041 27.5372 38.3362 24.7047 38.3362 21.7512C38.3362 18.7977 37.2041 15.9651 35.1891 13.8767C33.1741 11.7882 30.4412 10.615 27.5915 10.615C27.3077 10.615 27.0355 10.4981 26.8349 10.2902C26.6342 10.0822 26.5215 9.8001 26.5215 9.50597C26.5215 9.21185 26.6342 8.92977 26.8349 8.72179C27.0355 8.51381 27.3077 8.39697 27.5915 8.39697C31.0087 8.39697 34.286 9.80393 36.7023 12.3083C39.1187 14.8127 40.4762 18.2094 40.4762 21.7512C40.4762 25.2929 39.1187 28.6896 36.7023 31.194C34.286 33.6984 31.0087 35.1054 27.5915 35.1054Z" fill="#23212C"/>
<path d="M31.2635 27.6196C31.0514 27.6185 30.8443 27.5524 30.6685 27.4295C30.4926 27.3066 30.3559 27.1324 30.2754 26.929C30.195 26.7256 30.1746 26.502 30.2167 26.2865C30.2587 26.0711 30.3615 25.8734 30.5119 25.7184C31.0183 25.1996 31.4209 24.5824 31.6968 23.902C31.9727 23.2217 32.1164 22.4916 32.1196 21.7537C32.1229 21.0157 31.9856 20.2843 31.7158 19.6014C31.4459 18.9185 31.0487 18.2975 30.5469 17.7739C30.4434 17.6718 30.3606 17.5492 30.3035 17.4133C30.2464 17.2775 30.2161 17.1312 30.2145 16.983C30.2128 16.8349 30.2398 16.6879 30.2939 16.5507C30.348 16.4136 30.4281 16.289 30.5294 16.1845C30.6307 16.0799 30.7512 15.9975 30.8837 15.942C31.0163 15.8865 31.1582 15.8591 31.3011 15.8615C31.4441 15.8638 31.5851 15.8958 31.7159 15.9555C31.8468 16.0153 31.9647 16.1016 32.0628 16.2094C32.7645 16.9395 33.3201 17.8062 33.6976 18.7595C34.0752 19.7129 34.2672 20.7342 34.2628 21.7647C34.2583 22.7952 34.0575 23.8147 33.6717 24.7645C33.286 25.7143 32.723 26.5758 32.015 27.2994C31.8149 27.5044 31.5449 27.6194 31.2635 27.6196Z" fill="#23212C"/>
</svg>
